<?xml version="1.0" encoding="utf-8"?>
<!-- Generator: Adobe Illustrator 18.1.0, SVG Export Plug-In . SVG Version: 6.00 Build 0)  -->
<svg version="1.1" id="Calque_1" xmlns="http://www.w3.org/2000/svg" xmlns:xlink="http://www.w3.org/1999/xlink" x="0px" y="0px"
	 viewBox="-107.5 -25.5 230 66" enable-background="new -107.5 -25.5 230 66" xml:space="preserve">
<path fill="#FFFFFF" d="M-36.6-15.4h1.2v1.7l0,0c0.7-1.2,1.7-1.9,3.4-1.9c1.2,0,2.4,0.7,2.9,1.9c0.5-1.2,1.9-1.9,3.1-1.9
	c2.2,0,3.4,1.2,3.4,3.6v6.8h-1.2V-12c0-1.7-0.7-2.7-2.4-2.7c-2.2,0-2.7,1.7-2.7,3.6v5.6h-1.2v-6.8c0-1.4-0.5-2.4-2.2-2.4
	c-2.2,0-2.9,1.7-2.9,3.6v5.6h-1.2v-9.9H-36.6z"/>
<path fill="#FFFFFF" d="M-12.1-5.3h-1.2v-1.7l0,0c-0.7,1.4-1.9,2.2-3.4,2.2c-2.4,0-3.6-1.4-3.6-3.9v-6.5h1.2v6.5
	c0,1.7,0.7,2.7,2.7,2.7c2.2,0,2.9-1.9,2.9-4.1v-5.3h1.2v10.1C-12.3-5.3-12.1-5.3-12.1-5.3z"/>
<path fill="#FFFFFF" d="M-3.8-12.5c0-1.4-1.2-2.2-2.7-2.2c-1,0-2.4,0.5-2.4,1.7s1.2,1.4,2.2,1.7l1.7,0.5c1.4,0.2,2.9,1,2.9,2.9
	c0,2.2-2.2,2.9-4.1,2.9c-2.4,0-3.9-1-4.1-3.6h1.2c0,1.7,1.2,2.4,2.9,2.4c1.2,0,2.7-0.5,2.7-1.9c0-1.2-1.2-1.4-2.2-1.9l-1.7-0.3
	c-1.7-0.5-2.9-1-2.9-2.7c0-1.9,1.9-2.9,3.9-2.9s3.6,1,3.6,3.1h-1C-3.8-12.8-3.8-12.5-3.8-12.5z"/>
<path fill="#FFFFFF" d="M0.3-10.1c0,1.7,1,3.9,3.4,3.9c1.7,0,2.7-1,3.1-2.7H8C7.6-6.7,6.1-5,3.7-5c-3.1,0-4.6-2.4-4.6-5.3
	c0-2.7,1.4-5.3,4.6-5.3c3.1,0,4.6,2.9,4.3,5.6L0.3-10.1C0.3-10.1,0.3-10.1,0.3-10.1z M6.8-11.3c0-1.9-1.2-3.6-3.1-3.6
	s-3.1,1.7-3.4,3.6H6.8z"/>
<path fill="#FFFFFF" d="M18-5.3h-1.2v-1.7l0,0c-0.7,1.4-1.9,2.2-3.4,2.2c-2.4,0-3.6-1.4-3.6-3.9v-6.5H11v6.5c0,1.7,0.7,2.7,2.7,2.7
	c2.2,0,2.9-1.9,2.9-4.1v-5.3h1.2v10.1C17.8-5.3,18-5.3,18-5.3z"/>
<path fill="#FFFFFF" d="M20.1-15.4h1.2v1.7l0,0c0.7-1.2,1.7-1.9,3.4-1.9c1.2,0,2.4,0.7,2.9,1.9c0.5-1.2,1.9-1.9,3.1-1.9
	c2.2,0,3.4,1.2,3.4,3.6v6.8H33V-12c0-1.7-0.7-2.7-2.4-2.7c-2.2,0-2.7,1.7-2.7,3.6v5.6h-1.2v-6.8c0-1.4-0.5-2.4-2.2-2.4
	c-2.2,0-2.9,1.7-2.9,3.6v5.6h-1.4V-15.4z"/>
<path fill="#FFFFFF" d="M49.3-10.6c0,2.9-1.7,5.3-4.8,5.3c-3.1,0-4.8-2.4-4.8-5.3s1.7-5.3,4.8-5.3C47.8-15.9,49.3-13.5,49.3-10.6
	 M41.1-10.6c0,2.2,1.2,4.3,3.6,4.3c2.4,0,3.6-2.2,3.6-4.3s-1.2-4.3-3.6-4.3C42.3-14.7,41.1-12.7,41.1-10.6"/>
<path fill="#FFFFFF" d="M55.1-14.4h-1.9v8.9H52v-8.9h-1.7v-1H52v-1c0-1.7,0.5-2.9,2.4-2.9c0.2,0,0.7,0,1,0v1c-0.2,0-0.5,0-1,0
	c-1.4,0-1.2,1-1.4,1.9v1h1.8v1H55.1z"/>
<path fill="#FFFFFF" d="M-34.4,8.7c0,1.2,1,1.7,2.2,1.7c0.7,0,1.7-0.2,1.7-1.2c0-0.7-1.2-1.2-3.1-1.4c-1.7-0.2-3.1-1-3.1-2.7
	c0-2.7,2.2-3.1,4.3-3.1c2.2,0,4.1,0.7,4.3,3.1h-2.7c0-1-1-1.4-1.9-1.4c-0.7,0-1.4,0-1.4,1s1.4,1.2,3.1,1.4c1.7,0.5,3.1,1,3.1,2.9
	c0,2.7-2.2,3.4-4.6,3.4c-2.4,0-4.6-1-4.8-3.6h2.9C-34.4,8.8-34.4,8.7-34.4,8.7z"/>
<path fill="#FFFFFF" d="M-19.3,5.6c-0.2-1.2-1-1.7-1.9-1.7c-1.7,0-2.4,1.7-2.4,3.4c0,1.4,0.5,3.1,2.2,3.1c1.2,0,1.9-0.7,2.2-1.9h2.7
	c-0.2,2.7-2.2,4.1-4.8,4.1c-3.1,0-5.1-2.2-5.1-5.1c0-3.1,1.9-5.6,5.1-5.6c2.4,0,4.6,1.2,4.8,3.9h-2.7V5.6H-19.3z"/>
<path fill="#FFFFFF" d="M-12.1,0.5h-2.7v-2.2h2.7V0.5z M-14.7,2h2.7v10.1h-2.7V2z"/>
<path fill="#FFFFFF" d="M-7.7,7.8c0,1.7,1,2.7,2.4,2.7c1.2,0,1.9-0.7,2.2-1.2h2.4c-0.7,2.4-2.4,3.4-4.6,3.4c-3.1,0-5.1-2.2-5.1-5.3
	c0-2.9,2.2-5.3,5.1-5.3c3.4,0,5.1,2.9,4.8,6h-7.2C-7.7,8.1-7.7,7.8-7.7,7.8z M-3.1,5.8c-0.2-1.4-1-2.2-2.2-2.2
	c-1.6,0-2.1,1.5-2.1,2.2H-3.1z"/>
<path fill="#FFFFFF" d="M1.3,2H4v1.4l0,0c0.7-1.2,1.9-1.7,3.1-1.7c2.9,0,3.6,1.7,3.6,4.1v6.3H8.1V6.5c0-1.6-0.5-2.4-1.7-2.4
	C4.9,4.1,4.2,4.9,4.2,7v5.3H1.5V2H1.3z"/>
<path fill="#FFFFFF" d="M19.6,5.6c0-1.2-0.7-1.9-1.9-1.9c-1.7,0-2.4,1.7-2.4,3.4c0,1.4,0.5,3.1,2.4,3.1c1.2,0,1.9-0.7,2.2-1.9h2.7
	c-0.2,2.7-2.2,4.1-4.8,4.1c-3.1,0-5.1-2.2-5.1-5.1c0-3.1,1.9-5.6,5.1-5.6c2.4,0,4.6,1.2,4.8,3.9C22.5,5.6,19.6,5.6,19.6,5.6z"/>
<path fill="#FFFFFF" d="M26.4,7.8c0,1.7,1,2.7,2.4,2.7c1.2,0,1.9-0.7,2.2-1.2h2.5c-0.7,2.4-2.4,3.4-4.6,3.4c-3.1,0-5.1-2.2-5.1-5.3
	c0-2.9,2.2-5.3,5.1-5.3c3.4,0,5.1,2.9,4.8,6h-7.2V7.8H26.4z M30.9,5.8c-0.2-1.4-1-2.2-2.2-2.2c-1.7,0-2.2,1.4-2.2,2.2H30.9z"/>
<polygon fill="#FFFFFF" points="41.6,6.1 45.4,6.1 45.4,8.2 41.6,8.2 41.6,12.1 39.4,12.1 39.4,8.2 35.5,8.2 35.5,6.1 39.4,6.1 
	39.4,2.2 41.6,2.2 "/>
<path fill="#FFFFFF" d="M50.3,0.5h-2.7v-2.2h2.7V0.5z M47.6,2h2.7v10.1h-2.7V2z"/>
<path fill="#FFFFFF" d="M52.4,2h2.7v1.4l0,0c0.7-1.2,1.9-1.7,3.1-1.7c2.9,0,3.6,1.7,3.6,4.1v6.3h-2.7V6.5c0-1.7-0.5-2.4-1.7-2.4
	c-1.4,0-2.2,0.7-2.2,2.9v5.3h-2.7V2H52.4z"/>
<path fill="#FFFFFF" d="M71.1,10.6L71.1,10.6C70.4,11.8,69.4,12,68,12c-3.1,0-4.6-2.7-4.6-5.3s1.4-5.3,4.3-5.3
	c1.2,0,2.4,0.5,2.9,1.4l0,0v-4.9h2.7v13.8h-2.2C71.1,11.7,71.1,10.6,71.1,10.6z M68.7,3.6c-1.7,0-2.4,1.4-2.4,3.1s0.7,3.1,2.4,3.1
	c1.9,0,2.4-1.7,2.4-3.1S70.6,3.6,68.7,3.6"/>
<path fill="#FFFFFF" d="M85.5,12.1h-2.7v-1.4l0,0c-0.7,1.2-1.9,1.7-3.1,1.7c-2.9,0-3.6-1.7-3.6-4.1V2h2.6v5.6c0,1.7,0.5,2.4,1.7,2.4
	c1.5,0,2.3-0.7,2.3-2.9V1.7h2.7v10.4C85.4,12.1,85.5,12.1,85.5,12.1z"/>
<path fill="#FFFFFF" d="M89.6,8.7c0,1.2,1,1.7,2.2,1.7c0.7,0,1.7-0.2,1.7-1.2c0-0.7-1.2-1.2-3.1-1.4c-1.7-0.2-3.1-1-3.1-2.7
	c0-2.7,2.2-3.1,4.3-3.1c2.1,0,4.1,0.7,4.3,3.1h-2.7c0-1-1-1.4-1.9-1.4c-0.7,0-1.4,0-1.4,1s1.4,1.2,3.1,1.4c1.7,0.5,3.1,1,3.1,2.9
	c0,2.7-2.2,3.4-4.6,3.4s-4.6-1-4.8-3.6h2.9V8.7z"/>
<path fill="#FFFFFF" d="M101.4,2h1.9v1.9h-1.9V9c0,1,0.2,1.2,1.2,1.2c0.2,0,0.5,0,1,0v2.2c-0.5,0-1,0-1.7,0c-1.7,0-3.1-0.5-3.1-2.4
	V3.9h-1.7V2h1.7v-2.9h2.7V2H101.4z"/>
<path fill="#FFFFFF" d="M104.9,2h2.7v1.9l0,0c0.5-1.2,1.9-2.2,3.1-2.2c0.2,0,0.5,0,0.5,0v2.7c-0.2,0-0.7,0-1,0
	c-1.9,0-2.7,1.4-2.7,3.1v4.6h-2.7V2H104.9z"/>
<path fill="#FFFFFF" d="M118.6,13.3c-0.7,1.7-1.4,2.2-3.4,2.2c-0.5,0-1.2,0-1.7,0v-2.2c0.5,0,1,0,1.7,0c1,0,1.2-1.2,1-1.9L112.3,2
	h2.9l2.2,6.8l0,0l2.2-6.8h2.9L118.6,13.3z"/>
<path fill="#FFFFFF" d="M-29.3,22.5c-0.2-1.4-1.2-2.4-2.9-2.4c-2.4,0-3.6,2.2-3.6,4.3s1.2,4.3,3.6,4.3c1.4,0,2.7-1.2,2.9-2.9h1.2
	c-0.2,2.4-1.9,3.9-4.1,3.9c-3.1,0-4.8-2.4-4.8-5.3s1.7-5.3,4.8-5.3c2.2,0,3.9,1.2,4.1,3.4C-28.1,22.5-29.3,22.5-29.3,22.5z"/>
<path fill="#FFFFFF" d="M-26.4,15.5h1.2v5.6l0,0c0.5-1.2,1.7-1.9,3.1-1.9c2.9,0,3.6,1.4,3.6,3.9v6.5h-1.1v-6.5
	c0-1.7-0.5-3.1-2.7-3.1c-1.9,0-3.1,1.4-3.1,3.4v5.8h-1.2V15.5H-26.4z"/>
<path fill="#FFFFFF" d="M-15.9,15.5h1.2v1.9h-1.2V15.5z M-15.9,19.3h1.2v10.1h-1.2V19.3z"/>
<path fill="#FFFFFF" d="M-5,22.5c-0.2-1.4-1.2-2.4-2.9-2.4c-2.4,0-3.6,2.2-3.6,4.3s1.2,4.3,3.6,4.3c1.4,0,2.7-1.2,2.9-2.9h1.2
	C-4,28.2-5.7,29.7-8,29.7c-3.1,0-4.8-2.4-4.8-5.3s1.7-5.3,4.8-5.3c2.2,0,3.9,1.2,4.1,3.4C-3.8,22.5-5,22.5-5,22.5z"/>
<path fill="#FFFFFF" d="M-2.1,22.2c0-2.4,1.7-3.4,4.1-3.4c1.7,0.1,3.6,0.5,3.6,3.2v5.3c0,0.5,0.2,0.7,0.7,0.7c0.2,0,0.2,0,0.5,0v1
	c-0.2,0-0.5,0-0.7,0c-1.2,0-1.4-0.7-1.4-1.7l0,0c-1,1.2-1.7,1.9-3.6,1.9s-3.4-1-3.4-2.9c0-2.9,2.7-2.9,5.3-3.1c1,0,1.7-0.2,1.7-1.4
	c0-1.7-1.2-2.2-2.7-2.2s-2.7,0.7-2.7,2.4h-1.4C-2.1,22-2.1,22.2-2.1,22.2z M4.4,23.7L4.4,23.7c-0.2,0.2-0.7,0.5-1,0.5
	c-2.2,0.5-4.6,0.2-4.6,2.4c0,1.2,1.2,1.9,2.2,1.9c1.9,0,3.6-1.2,3.4-3.1C4.4,25.4,4.4,23.7,4.4,23.7z"/>
<path fill="#FFFFFF" d="M16.5,28.5c0,2.9-1.2,4.8-4.3,4.8c-1.9,0-4.1-1-4.1-3.1h1.2c0.2,1.4,1.7,1.9,2.9,1.9c2.2,0,3.1-1.4,3.1-3.9
	v-1.4l0,0C14.8,28,13.6,29,12.2,29c-3.2,0-4.6-2.2-4.6-5.1c0-2.7,1.7-5.1,4.6-5.1c1.4,0,2.7,1,3.1,1.9l0,0V19h1.2
	C16.5,19,16.5,28.5,16.5,28.5z M15.3,24.2c0-1.9-1-4.1-3.1-4.1c-2.4,0-3.4,2.2-3.4,4.1s1,3.9,3.4,3.9C14.1,28,15.3,26.1,15.3,24.2"
	/>
<path fill="#FFFFFF" d="M27.8,24.2c0,2.9-1.7,5.3-4.8,5.3s-4.8-2.4-4.8-5.3s1.7-5.3,4.8-5.3S27.8,21.3,27.8,24.2 M19.4,24.2
	c0,2.2,1.2,4.3,3.6,4.3s3.6-2.2,3.6-4.3s-1.2-4.3-3.6-4.3C20.6,20.1,19.4,22.2,19.4,24.2"/>
<polygon fill="#FFFFFF" points="-96.3,29 -90.9,32.2 -90.9,30 -96.3,26.8 "/>
<polygon fill="#FFFFFF" points="-96.3,18.6 -96.3,20.5 -90.9,23.7 -90.9,21.8 "/>
<polygon fill="#FFFFFF" points="-107.1,20.5 -107.1,22.7 -101.8,25.9 -101.8,23.7 "/>
<polygon fill="#FFFFFF" points="-96.3,22.7 -96.3,24.9 -90.9,27.8 -90.9,25.9 "/>
<polygon fill="#FFFFFF" points="-96.3,12.3 -90.9,15.5 -90.9,13.3 -96.3,10.2 "/>
<polygon fill="#FFFFFF" points="-96.3,6.1 -96.3,8.2 -90.9,11.4 -90.9,9.2 "/>
<polygon fill="#FFFFFF" points="-96.3,16.4 -90.9,19.6 -90.9,17.4 -96.3,14.5 "/>
<polygon fill="#FFFFFF" points="-80,25.9 -80,23.7 -85.6,20.5 -85.6,22.7 "/>
<polygon fill="#FFFFFF" points="-80,19.6 -85.6,16.4 -85.6,18.6 -80,21.8 "/>
<polygon fill="#FFFFFF" points="-85.6,26.8 -80,30 -80,27.8 -85.6,24.9 "/>
<polygon fill="#FFFFFF" points="-80,7 -107.1,-8.6 -107.1,-6.5 -80,9.2 "/>
<polygon fill="#FFFFFF" points="-85.6,10.2 -85.6,10.2 -80,13.3 -80,11.4 -107.1,-4.3 -107.1,-2.1 -101.8,1 -96.3,4.1 -96.3,4.1 
	-90.9,7 "/>
<polygon fill="#FFFFFF" points="-80,15.5 -85.6,12.3 -85.6,14.5 -80,17.4 "/>
<polygon fill="#FFFFFF" points="-107.1,6.1 -101.8,9.2 -101.8,7 -107.1,4.1 "/>
<polygon fill="#FFFFFF" points="-107.1,10.2 -101.8,13.3 -101.8,11.4 -107.1,8.2 "/>
<polygon fill="#FFFFFF" points="-107.1,2 -101.8,5.1 -101.8,2.9 -107.1,-0.2 "/>
<polygon fill="#FFFFFF" points="-107.1,16.4 -107.1,18.6 -101.8,21.8 -101.8,19.6 "/>
<polygon fill="#FFFFFF" points="-107.1,14.5 -101.8,17.4 -101.8,15.5 -107.1,12.3 "/>
<polygon fill="#FFFFFF" points="-52.8,-2.1 -52.8,-8.6 -69.3,-18 -74.7,-14.9 -58.4,-5.3 -58.4,-5.3 -74.7,4.1 -74.7,22.7 
	-58.4,13.3 -58.4,19.6 -80,32.2 -85.6,29 -85.6,30.9 -80,34.2 -80,36.3 -85.6,33.2 -85.6,35.1 -80,38.3 -52.8,22.7 -52.8,4.1 
	-69.3,13.3 -69.3,7 "/>
<polygon fill="#FFFFFF" points="-74.7,-21.2 -80,-24.3 -85.6,-21.2 -80,-18 "/>
</svg>
